<svg width="22" height="23" viewBox="0 0 22 23" fill="none" xmlns="http://www.w3.org/2000/svg">
                                        <path
                                            d="M1.82764 11.8634C1.82764 8.49248 1.82764 6.80699 2.57126 5.61223C2.84639 5.17021 3.18813 4.78574 3.58105 4.47623C4.64306 3.63965 6.14126 3.63965 9.13767 3.63965H12.7927C15.7891 3.63965 17.2873 3.63965 18.3493 4.47623C18.7422 4.78574 19.084 5.17021 19.3591 5.61223C20.1027 6.80699 20.1027 8.49248 20.1027 11.8634C20.1027 15.2344 20.1027 16.9199 19.3591 18.1146C19.084 18.5567 18.7422 18.9411 18.3493 19.2506C17.2873 20.0872 15.7891 20.0872 12.7927 20.0872H9.13767C6.14126 20.0872 4.64306 20.0872 3.58105 19.2506C3.18813 18.9411 2.84639 18.5567 2.57126 18.1146C1.82764 16.9199 1.82764 15.2344 1.82764 11.8634Z"
                                            stroke="#141B34" stroke-width="1.4" />
                                        <path d="M8.68066 3.63965L8.68066 20.0872" stroke="#141B34" stroke-width="1.4"
                                            stroke-linejoin="round" />
                                        <path d="M4.56885 7.29492H5.4826M4.56885 10.0362H5.4826" stroke="#141B34" stroke-width="1.4"
                                            stroke-linecap="round" stroke-linejoin="round" />
                                    </svg>