<svg width="22" height="23" viewBox="0 0 22 23" fill="none" xmlns="http://www.w3.org/2000/svg">
                                        <path d="M11.8789 14.5088C9.78491 19.9913 3.92166 14.5088 1.82764 19.9913" stroke="#141B34"
                                            stroke-width="1.4" stroke-linecap="round" stroke-linejoin="round" />
                                        <path
                                            d="M14.1636 14.509H15.5354C17.6891 14.509 18.766 14.509 19.4351 13.8399C20.1041 13.1708 20.1041 12.094 20.1041 9.94022V8.11272C20.1041 5.95898 20.1041 4.88211 19.4351 4.21303C18.766 3.54395 17.6891 3.54395 15.5354 3.54395L11.8804 3.54395C9.72661 3.54395 8.64974 3.54395 7.98066 4.21303C7.41376 4.77993 7.32719 5.63958 7.31396 7.19896"
                                            stroke="#141B34" stroke-width="1.4" stroke-linecap="round" stroke-linejoin="round" />
                                        <ellipse cx="6.85323" cy="12.2248" rx="2.28439" ry="2.28439" stroke="#141B34" stroke-width="1.4"
                                            stroke-linecap="round" stroke-linejoin="round" />
                                        <path d="M10.9653 7.19922L16.4479 7.19922M16.4479 10.8542L13.7066 10.8542" stroke="#141B34"
                                            stroke-width="1.4" stroke-linecap="round" stroke-linejoin="round" />
                                    </svg>