  <svg width="22" height="23" viewBox="0 0 22 23" fill="none" xmlns="http://www.w3.org/2000/svg">
                                        <path
                                            d="M20.1027 11.158C20.1027 16.2046 16.0117 20.2956 10.9652 20.2956C5.91865 20.2956 1.82764 16.2046 1.82764 11.158C1.82764 6.11152 5.91865 2.02051 10.9652 2.02051C16.0117 2.02051 20.1027 6.11152 20.1027 11.158Z"
                                            stroke="#141B34" stroke-width="1.4" />
                                        <path
                                            d="M12.7782 9.4469C12.7782 9.8335 13.0916 10.1469 13.4782 10.1469C13.8648 10.1469 14.1782 9.8335 14.1782 9.4469H12.7782ZM8.92412 12.8688C8.92412 12.4822 8.61072 12.1688 8.22412 12.1688C7.83752 12.1688 7.52412 12.4822 7.52412 12.8688H8.92412ZM11.6654 6.58887C11.6654 6.20227 11.352 5.88887 10.9654 5.88887C10.5788 5.88887 10.2654 6.20227 10.2654 6.58887L11.6654 6.58887ZM10.2654 15.7264C10.2654 16.113 10.5788 16.4264 10.9654 16.4264C11.352 16.4264 11.6654 16.113 11.6654 15.7264H10.2654ZM10.9654 10.3262C10.0963 10.3262 9.63861 10.1875 9.41307 10.0365C9.24748 9.92563 9.15256 9.7749 9.15256 9.4469H7.75256C7.75256 10.1365 8.0003 10.7754 8.63424 11.1998C9.20824 11.5841 10.007 11.7262 10.9654 11.7262V10.3262ZM9.15256 9.4469C9.15256 9.2147 9.27945 8.94538 9.60248 8.70852C9.92508 8.47197 10.4047 8.30435 10.9654 8.30435V6.90435C10.1383 6.90435 9.36148 7.14919 8.77462 7.57951C8.18818 8.00953 7.75256 8.66149 7.75256 9.4469H9.15256ZM10.9654 8.30435C11.5261 8.30435 12.0057 8.47197 12.3283 8.70852C12.6513 8.94538 12.7782 9.2147 12.7782 9.4469H14.1782C14.1782 8.66149 13.7426 8.00953 13.1561 7.57951C12.5693 7.14919 11.7925 6.90435 10.9654 6.90435V8.30435ZM13.0066 12.8688C13.0066 13.2614 12.8463 13.5027 12.545 13.6825C12.2012 13.8878 11.6593 14.0113 10.9654 14.0113V15.4113C11.7855 15.4113 12.6142 15.2717 13.2625 14.8846C13.9534 14.4723 14.4066 13.7923 14.4066 12.8688H13.0066ZM10.9654 14.0113C10.3285 14.0113 9.7833 13.8366 9.41751 13.5907C9.04734 13.3419 8.92412 13.0734 8.92412 12.8688H7.52412C7.52412 13.6818 8.01455 14.3346 8.63652 14.7526C9.26288 15.1736 10.0883 15.4113 10.9654 15.4113V14.0113ZM10.9654 11.7262C11.8401 11.7262 12.3572 11.8577 12.6406 12.0414C12.8604 12.1838 13.0066 12.3988 13.0066 12.8688H14.4066C14.4066 12.0226 14.0961 11.3164 13.4021 10.8666C12.7717 10.458 11.9182 10.3262 10.9654 10.3262V11.7262ZM11.6654 7.60435L11.6654 6.58887L10.2654 6.58887L10.2654 7.60435L11.6654 7.60435ZM10.2654 14.7113V15.7264H11.6654V14.7113H10.2654Z"
                                            fill="#141B34" />
                                    </svg>