<svg width="22" height="23" viewBox="0 0 22 23" fill="none" xmlns="http://www.w3.org/2000/svg">
                                        <path
                                            d="M2.74121 10.7832L2.8809 13.7318C3.031 16.8766 3.10604 18.449 4.16561 19.4133C5.22519 20.3776 6.87792 20.3776 10.1834 20.3776H11.7466C15.0521 20.3776 16.7048 20.3776 17.7644 19.4133C18.824 18.449 18.899 16.8766 19.0491 13.7318L19.1888 10.7832"
                                            stroke="#141B34" stroke-width="1.4" stroke-linecap="round" stroke-linejoin="round" />
                                        <path
                                            d="M2.60142 10.2747C4.15416 13.2274 7.65632 14.4386 10.9648 14.4386C14.2734 14.4386 17.7755 13.2274 19.3283 10.2747C20.0695 8.86524 19.5082 6.21484 17.6828 6.21484H4.24693C2.42146 6.21484 1.86022 8.86524 2.60142 10.2747Z"
                                            stroke="#141B34" stroke-width="1.4" />
                                        <path d="M10.9648 10.7832H10.9731" stroke="#141B34" stroke-width="1.4" stroke-linecap="round"
                                            stroke-linejoin="round" />
                                        <path
                                            d="M14.6196 6.21474L14.5389 5.93233C14.1369 4.52511 13.9358 3.8215 13.4572 3.41905C12.9786 3.0166 12.3429 3.0166 11.0715 3.0166H10.8577C9.58627 3.0166 8.95056 3.0166 8.47196 3.41905C7.99335 3.8215 7.79232 4.52511 7.39026 5.93233L7.30957 6.21474"
                                            stroke="#141B34" stroke-width="1.4" />
                                    </svg>