<svg width="22" height="23" viewBox="0 0 22 23" fill="none" xmlns="http://www.w3.org/2000/svg">
                                        <g clip-path="url(#clip0_15_5297)">
                                            <path
                                                d="M18.9821 17.2756C19.6667 17.2756 20.2113 16.8447 20.7003 16.2423C21.7013 15.009 20.0578 14.0234 19.431 13.5407C18.7938 13.05 18.0824 12.7721 17.361 12.7068M16.4473 10.8793C17.7089 10.8793 18.7317 9.85656 18.7317 8.59493C18.7317 7.3333 17.7089 6.31055 16.4473 6.31055"
                                                stroke="#141B34" stroke-width="1.4" stroke-linecap="round" />
                                            <path
                                                d="M2.94755 17.2756C2.26287 17.2756 1.71829 16.8447 1.22932 16.2423C0.22834 15.009 1.8718 14.0234 2.49861 13.5407C3.1358 13.05 3.84726 12.7721 4.56859 12.7068M5.02547 10.8793C3.76384 10.8793 2.74108 9.85656 2.74108 8.59493C2.74108 7.3333 3.76384 6.31055 5.02547 6.31055"
                                                stroke="#141B34" stroke-width="1.4" stroke-linecap="round" />
                                            <path
                                                d="M7.38635 14.6364C6.4527 15.2138 4.00471 16.3926 5.4957 17.8677C6.22403 18.5883 7.03521 19.1036 8.05506 19.1036H13.8745C14.8944 19.1036 15.7056 18.5883 16.4339 17.8677C17.9249 16.3926 15.4769 15.2138 14.5432 14.6364C12.3538 13.2826 9.57576 13.2826 7.38635 14.6364Z"
                                                stroke="#141B34" stroke-width="1.4" stroke-linecap="round" stroke-linejoin="round" />
                                            <path
                                                d="M14.1629 7.68154C14.1629 9.44782 12.731 10.8797 10.9647 10.8797C9.19846 10.8797 7.7666 9.44782 7.7666 7.68154C7.7666 5.91525 9.19846 4.4834 10.9647 4.4834C12.731 4.4834 14.1629 5.91525 14.1629 7.68154Z"
                                                stroke="#141B34" stroke-width="1.4" />
                                        </g>
                                        <defs>
                                            <clipPath id="clip0_15_5297">
                                                <rect width="21.9301" height="21.9301" fill="white" transform="translate(0 0.828125)" />
                                            </clipPath>
                                        </defs>
                                    </svg>